<svg width="232" height="225" viewBox="0 0 232 225" fill="none" xmlns="http://www.w3.org/2000/svg">
<path d="M132.643 28.3825L137.405 43.038C143.898 63.0211 162.52 76.5507 183.532 76.5507H198.941C215.894 76.5507 222.943 98.244 209.228 108.209L196.761 117.266C179.762 129.616 172.649 151.508 179.142 171.491L183.904 186.146C189.143 202.269 170.689 215.676 156.974 205.712L144.508 196.654C127.509 184.304 104.491 184.304 87.4924 196.654L75.0256 205.712C61.3107 215.676 42.8572 202.269 48.0959 186.146L52.8578 171.491C59.3507 151.508 52.2378 129.616 35.2391 117.266L22.7724 108.209C9.05739 98.244 16.1059 76.5507 33.0586 76.5507H48.4684C69.4799 76.5507 88.1017 63.0211 94.5946 43.038L99.3565 28.3825C104.595 12.2595 127.405 12.2595 132.643 28.3825Z" stroke="white" stroke-width="31"/>
</svg>
