<svg width="232" height="225" viewBox="0 0 232 225" fill="none" xmlns="http://www.w3.org/2000/svg">
<path d="M84.6151 23.5927C94.4937 -6.81054 137.506 -6.81055 147.385 23.5927L152.147 38.2483C156.565 51.845 169.235 61.0507 183.532 61.0507H198.941C230.909 61.0507 244.201 101.958 218.338 120.748L205.872 129.806C194.305 138.209 189.466 153.104 193.884 166.701L198.645 181.357C208.524 211.76 173.726 237.042 147.864 218.252L135.397 209.194C123.831 200.791 108.169 200.791 96.6031 209.194L84.1363 218.252C58.2738 237.042 23.4759 211.76 33.3545 181.357L38.1164 166.701C42.5343 153.104 37.6945 138.209 26.1285 129.806L13.6617 120.748C-12.2009 101.958 1.09075 61.0507 33.0586 61.0507H48.4684C62.7649 61.0507 75.4354 51.845 79.8533 38.2483L84.6151 23.5927Z" fill="#FFB700"/>
</svg>
